<svg id="Layer_1" data-name="Layer 1" xmlns="http://www.w3.org/2000/svg" viewBox="0 0 48 48"><defs><style>.cls-1{fill:#090505;stroke:#231f20;stroke-miterlimit:10;}.cls-2{fill:#fff;}.cls-3{fill:#7e51a1;}.cls-4{fill:#f1f2f2;}</style></defs><polygon class="cls-1" points="6.29 10.13 5.97 41.83 6.33 41.87 6.64 43.39 9.02 43.63 9.3 42.06 25.01 43.47 25.98 45.62 28.45 45.89 28.96 43.94 28.29 2.24 6.29 10.13"/><polygon class="cls-1" points="29.26 2.11 39.78 5.03 40.78 5.91 42.03 42.08 40.78 44.01 29.68 44.58 31.14 42.49 30.04 3.93 29.26 2.11"/><path class="cls-2" d="M35.11,9.61s-.68.47-.64.47a7,7,0,0,1-.47.69l-.32,1.08-.07,1.07.08,1.21L34,15.19l.38.87.56.9.73.7.59.33.8.09,1-.35.65-.68.39-.83.27-1.32,0-1-.19-1.36-.56-1.18-.54-.85-1-.86-1.18-.34Z"/><path class="cls-2" d="M35.35,19.41s-.69.47-.65.47a7.18,7.18,0,0,1-.48.69l-.33,1.08-.07,1.07.08,1.21L34.18,25l.39.88.57.9.75.7.6.33.83.09,1-.36.66-.67.4-.84.28-1.31,0-1-.19-1.35L39,21.19l-.56-.84-1.06-.86-1.2-.34Z"/><path class="cls-2" d="M35.84,29s-.74.43-.7.43a8.1,8.1,0,0,1-.55.67l-.42,1.09L34,32.26l0,1.25.2,1.12.32.93.5,1,.7.79.58.38.83.16,1.07-.27.73-.65.48-.83.39-1.33.09-1-.07-1.41-.49-1.27-.49-.92-1-1-1.19-.45Z"/><polygon class="cls-3" points="36.28 12.36 36.07 12.65 35.92 13.07 35.88 13.61 35.99 14.04 36.17 14.41 36.4 14.73 36.67 14.89 36.94 14.97 37.29 14.9 37.55 14.64 37.67 14.38 37.77 14.01 37.76 13.6 37.6 13.09 37.45 12.81 37.21 12.51 36.93 12.36 36.63 12.29 36.28 12.36"/><polygon class="cls-3" points="36.28 22.21 36.07 22.5 35.92 22.92 35.88 23.46 35.99 23.89 36.17 24.26 36.4 24.58 36.67 24.74 36.94 24.82 37.29 24.75 37.55 24.49 37.67 24.23 37.77 23.86 37.76 23.45 37.6 22.94 37.45 22.66 37.21 22.36 36.93 22.2 36.63 22.14 36.28 22.21"/><polygon class="cls-3" points="36.28 32.3 36.07 32.58 35.92 33 35.88 33.54 35.99 33.97 36.17 34.35 36.4 34.66 36.67 34.83 36.94 34.9 37.29 34.83 37.55 34.57 37.67 34.31 37.77 33.94 37.76 33.53 37.6 33.03 37.45 32.74 37.21 32.45 36.93 32.29 36.63 32.22 36.28 32.3"/><polygon class="cls-4" points="11.66 16.57 14.23 21.31 14.34 28.72 11.66 34.76 11.63 16.72 11.66 16.57"/><polygon class="cls-4" points="12.71 16.29 14.9 19.63 18.72 18.58 19.24 19.23 19.32 20.59 18.84 21.77 16.11 22.45 16.15 26.47 19.19 25.97 19.85 26.89 19.91 28.5 19.33 29.67 15.91 30.27 13.76 34.53 20.81 33.94 22.9 30.18 22.85 25.29 21.39 23.14 22.35 21.1 22.34 16.57 20.13 13.73 12.71 16.29"/></svg>