<svg id="Layer_1" data-name="Layer 1" xmlns="http://www.w3.org/2000/svg" viewBox="0 0 1080 1080"><defs><style>.cls-1{fill:#090505;stroke:#231f20;stroke-miterlimit:10;}.cls-2{fill:#fff;}.cls-3{fill:#7e51a1;}.cls-4{fill:#f1f2f2;}.cls-5{font-size:91.28px;fill:#231f20;font-family:Righteous-Regular, Righteous;}</style></defs><polygon class="cls-1" points="365.2 345.85 362.32 637.3 365.56 637.66 368.43 651.68 390.36 653.84 392.87 639.46 537.34 652.4 546.33 672.16 568.97 674.68 573.64 656.71 567.53 273.25 365.2 345.85"/><polygon class="cls-1" points="576.43 272.06 673.22 298.9 682.32 307.04 693.82 639.59 682.32 657.32 580.26 662.59 593.68 643.42 583.61 288.83 576.43 272.06"/><path class="cls-2" d="M630.21,341.07s-6.23,4.31-5.87,4.31-4.31,6.35-4.31,6.35l-3,9.94-.6,9.82.72,11.14,2.51,9.71,3.48,8,5.15,8.27L635,415.1l5.39,3,7.42.84,9.23-3.23,6-6.23,3.59-7.67,2.52-12.1.12-8.86-1.68-12.46-5.15-10.9-5-7.79-9.47-7.91-10.78-3.11Z"/><path class="cls-2" d="M632.47,431.15s-6.38,4.31-6,4.31-4.42,6.35-4.42,6.35L619,451.75l-.62,9.83.74,11.14,2.58,9.7,3.56,8,5.28,8.26,6.88,6.47,5.52,3,7.61.84,9.46-3.24,6.14-6.23,3.68-7.66,2.58-12.1.12-8.87-1.72-12.46-5.28-10.9-5.15-7.78-9.7-7.91-11-3.12Z"/><path class="cls-2" d="M636.93,519.05s-6.82,3.93-6.45,4-5,6.19-5,6.19l-3.93,10-1.43,10.09-.18,11.55,1.8,10.22,2.94,8.57,4.65,9,6.42,7.23,5.34,3.54,7.64,1.49,9.83-2.57,6.73-5.93,4.36-7.61,3.61-12.27.86-9.14-.7-13L669,538.67l-4.57-8.45-9.16-9-10.92-4.11Z"/><polygon class="cls-3" points="641 366.38 639.08 369.02 637.72 372.85 637.32 377.8 638.28 381.8 639.96 385.23 642.11 388.1 644.59 389.62 647.07 390.34 650.26 389.7 652.65 387.31 653.77 384.91 654.65 381.48 654.57 377.72 653.13 373.09 651.78 370.45 649.54 367.74 646.99 366.3 644.19 365.66 641 366.38"/><polygon class="cls-3" points="641 456.95 639.08 459.58 637.72 463.41 637.32 468.37 638.28 472.36 639.96 475.79 642.11 478.67 644.59 480.19 647.07 480.9 650.26 480.26 652.65 477.87 653.77 475.47 654.65 472.04 654.57 468.29 653.13 463.65 651.78 461.02 649.54 458.3 646.99 456.87 644.19 456.23 641 456.95"/><polygon class="cls-3" points="641 549.67 639.08 552.3 637.72 556.13 637.32 561.09 638.28 565.08 639.96 568.51 642.11 571.39 644.59 572.91 647.07 573.63 650.26 572.99 652.65 570.59 653.77 568.19 654.65 564.76 654.57 561.01 653.13 556.37 651.78 553.74 649.54 551.02 646.99 549.59 644.19 548.95 641 549.67"/><polygon class="cls-4" points="414.58 405.07 438.26 448.67 439.2 516.79 414.58 572.31 414.34 406.44 414.58 405.07"/><polygon class="cls-4" points="424.24 402.5 444.45 433.15 479.55 423.5 484.3 429.55 485.08 442.06 480.68 452.82 455.5 459.13 455.87 496.07 483.81 491.52 489.93 499.92 490.42 514.77 485.09 525.53 453.65 531.07 433.87 570.2 498.76 564.8 517.93 530.16 517.54 485.2 504.06 465.48 512.88 446.7 512.8 405.06 492.44 378.9 424.24 402.5"/><text class="cls-5" transform="translate(340.71 774.07)">BLENTRIK</text></svg>