<svg id="Layer_1" data-name="Layer 1" xmlns="http://www.w3.org/2000/svg" viewBox="0 0 1080 1080"><defs><style>.cls-1{fill:#fff200;}.cls-2{fill:#090505;stroke:#231f20;stroke-miterlimit:10;}.cls-3{fill:#fff;}.cls-4{fill:#7e51a1;}.cls-5{fill:#f1f2f2;}</style></defs><circle class="cls-1" cx="540" cy="540" r="368.02"/><polygon class="cls-2" points="377.13 412.47 374.25 703.93 377.49 704.29 380.36 718.31 402.28 720.46 404.8 706.09 549.27 719.03 558.25 738.79 580.89 741.31 585.57 723.34 579.46 339.88 377.13 412.47"/><polygon class="cls-2" points="588.35 338.69 685.14 365.52 694.25 373.67 705.75 706.22 694.25 723.95 592.18 729.22 605.6 710.05 595.54 355.46 588.35 338.69"/><path class="cls-3" d="M642.14,407.69s-6.23,4.32-5.87,4.32-4.31,6.34-4.31,6.34l-3,9.95-.6,9.82.72,11.14,2.52,9.7,3.47,8,5.15,8.27,6.71,6.47,5.39,3,7.43.84,9.22-3.24,6-6.23,3.6-7.66,2.51-12.1.12-8.87L679.51,435l-5.15-10.91-5-7.78-9.46-7.91-10.78-3.11Z"/><path class="cls-3" d="M644.4,497.78s-6.39,4.31-6,4.31-4.42,6.35-4.42,6.35l-3.07,9.94-.61,9.83.74,11.14,2.57,9.7,3.57,8,5.28,8.26,6.87,6.47,5.53,3,7.61.83,9.45-3.23,6.14-6.23,3.69-7.67,2.57-12.1.13-8.86-1.72-12.46-5.28-10.9-5.16-7.79-9.7-7.9-11.05-3.12Z"/><path class="cls-3" d="M648.85,585.68s-6.81,3.93-6.44,4-5,6.19-5,6.19l-3.93,10L632,615.92l-.17,11.56,1.8,10.22,2.93,8.57,4.66,9,6.42,7.23L653,666l7.63,1.48,9.83-2.56,6.73-5.93,4.36-7.61,3.62-12.28.86-9.13-.71-13L680.9,605.3l-4.57-8.46-9.15-8.94-10.92-4.11Z"/><polygon class="cls-4" points="652.92 433.01 651 435.64 649.65 439.48 649.25 444.43 650.21 448.42 651.88 451.86 654.04 454.73 656.51 456.25 658.99 456.97 662.18 456.33 664.58 453.93 665.7 451.54 666.58 448.1 666.5 444.35 665.06 439.72 663.7 437.08 661.47 434.37 658.91 432.93 656.12 432.29 652.92 433.01"/><polygon class="cls-4" points="652.92 523.57 651 526.21 649.65 530.04 649.25 534.99 650.21 538.99 651.88 542.42 654.04 545.3 656.51 546.81 658.99 547.53 662.18 546.89 664.58 544.5 665.7 542.1 666.58 538.67 666.5 534.91 665.06 530.28 663.7 527.65 661.47 524.93 658.91 523.49 656.12 522.86 652.92 523.57"/><polygon class="cls-4" points="652.92 616.29 651 618.93 649.65 622.76 649.25 627.71 650.21 631.71 651.88 635.14 654.04 638.02 656.51 639.53 658.99 640.25 662.18 639.61 664.58 637.22 665.7 634.82 666.58 631.39 666.5 627.63 665.06 623 663.7 620.37 661.47 617.65 658.91 616.21 656.12 615.58 652.92 616.29"/><polygon class="cls-5" points="426.5 471.7 450.18 515.3 451.13 583.42 426.5 638.94 426.27 473.06 426.5 471.7"/><polygon class="cls-5" points="436.16 469.12 456.38 499.77 491.48 490.13 496.22 496.18 497.01 508.69 492.6 519.45 467.42 525.75 467.8 562.7 495.73 558.15 501.86 566.54 502.34 581.4 497.02 592.16 465.57 597.7 445.8 636.83 510.69 631.43 529.86 596.79 529.47 551.83 515.99 532.11 524.81 513.33 524.73 471.69 504.37 445.53 436.16 469.12"/><polygon class="cls-2" points="377.13 412.47 374.25 703.93 377.49 704.29 380.36 718.31 402.28 720.46 404.8 706.09 549.27 719.03 558.25 738.79 580.89 741.31 585.57 723.34 579.46 339.88 377.13 412.47"/><polygon class="cls-2" points="588.35 338.69 685.14 365.52 694.25 373.67 705.75 706.22 694.25 723.95 592.18 729.22 605.6 710.05 595.54 355.46 588.35 338.69"/><path class="cls-3" d="M642.14,407.69s-6.23,4.32-5.87,4.32-4.31,6.34-4.31,6.34l-3,9.95-.6,9.82.72,11.14,2.52,9.7,3.47,8,5.15,8.27,6.71,6.47,5.39,3,7.43.84,9.22-3.24,6-6.23,3.6-7.66,2.51-12.1.12-8.87L679.51,435l-5.15-10.91-5-7.78-9.46-7.91-10.78-3.11Z"/><path class="cls-3" d="M644.4,497.78s-6.39,4.31-6,4.31-4.42,6.35-4.42,6.35l-3.07,9.94-.61,9.83.74,11.14,2.57,9.7,3.57,8,5.28,8.26,6.87,6.47,5.53,3,7.61.83,9.45-3.23,6.14-6.23,3.69-7.67,2.57-12.1.13-8.86-1.72-12.46-5.28-10.9-5.16-7.79-9.7-7.9-11.05-3.12Z"/><path class="cls-3" d="M648.85,585.68s-6.81,3.93-6.44,4-5,6.19-5,6.19l-3.93,10L632,615.92l-.17,11.56,1.8,10.22,2.93,8.57,4.66,9,6.42,7.23L653,666l7.63,1.48,9.83-2.56,6.73-5.93,4.36-7.61,3.62-12.28.86-9.13-.71-13L680.9,605.3l-4.57-8.46-9.15-8.94-10.92-4.11Z"/><polygon class="cls-4" points="652.92 433.01 651 435.64 649.65 439.48 649.25 444.43 650.21 448.42 651.88 451.86 654.04 454.73 656.51 456.25 658.99 456.97 662.18 456.33 664.58 453.93 665.7 451.54 666.58 448.1 666.5 444.35 665.06 439.72 663.7 437.08 661.47 434.37 658.91 432.93 656.12 432.29 652.92 433.01"/><polygon class="cls-4" points="652.92 523.57 651 526.21 649.65 530.04 649.25 534.99 650.21 538.99 651.88 542.42 654.04 545.3 656.51 546.81 658.99 547.53 662.18 546.89 664.58 544.5 665.7 542.1 666.58 538.67 666.5 534.91 665.06 530.28 663.7 527.65 661.47 524.93 658.91 523.49 656.12 522.86 652.92 523.57"/><polygon class="cls-4" points="652.92 616.29 651 618.93 649.65 622.76 649.25 627.71 650.21 631.71 651.88 635.14 654.04 638.02 656.51 639.53 658.99 640.25 662.18 639.61 664.58 637.22 665.7 634.82 666.58 631.39 666.5 627.63 665.06 623 663.7 620.37 661.47 617.65 658.91 616.21 656.12 615.58 652.92 616.29"/><polygon class="cls-5" points="426.5 471.7 450.18 515.3 451.13 583.42 426.5 638.94 426.27 473.06 426.5 471.7"/><polygon class="cls-5" points="436.16 469.12 456.38 499.77 491.48 490.13 496.22 496.18 497.01 508.69 492.6 519.45 467.42 525.75 467.8 562.7 495.73 558.15 501.86 566.54 502.34 581.4 497.02 592.16 465.57 597.7 445.8 636.83 510.69 631.43 529.86 596.79 529.47 551.83 515.99 532.11 524.81 513.33 524.73 471.69 504.37 445.53 436.16 469.12"/></svg>