<svg id="Layer_1" data-name="Layer 1" xmlns="http://www.w3.org/2000/svg" viewBox="0 0 1080 1080"><defs><style>.cls-1{fill:#090505;stroke:#231f20;stroke-miterlimit:10;}.cls-2{fill:#fff;}.cls-3{fill:#7e51a1;}.cls-4{fill:#f1f2f2;}</style></defs><polygon class="cls-1" points="120.24 211.34 112.83 962.49 121.17 963.41 128.58 999.53 185.08 1005.09 191.56 968.04 563.89 1001.38 587.04 1052.33 645.39 1058.81 657.43 1012.5 641.69 24.25 120.24 211.34"/><polygon class="cls-1" points="664.61 21.19 914.07 90.35 937.53 111.34 967.17 968.38 937.53 1014.07 674.49 1027.65 709.07 978.26 683.13 64.41 664.61 21.19"/><path class="cls-2" d="M803.23,199s-16.05,11.11-15.13,11.11S777,226.5,777,226.5l-7.72,25.62-1.54,25.32,1.85,28.71,6.48,25,9,20.68,13.27,21.3,17.29,16.68,13.89,7.71,19.14,2.16,23.78-8.33,15.43-16.05,9.27-19.76,6.48-31.19.31-22.84-4.32-32.11-13.28-28.09-13-20.07-24.39-20.38-27.78-8Z"/><path class="cls-2" d="M809.06,431.19S792.6,442.3,793.55,442.3s-11.39,16.36-11.39,16.36l-7.91,25.63-1.58,25.31,1.9,28.71,6.64,25L790.39,584l13.6,21.3L821.71,622,836,629.7l19.62,2.16,24.37-8.34,15.82-16,9.49-19.76,6.65-31.18.31-22.85-4.43-32.1-13.6-28.1-13.29-20.07-25-20.37-28.48-8Z"/><path class="cls-2" d="M820.53,657.72s-17.56,10.13-16.6,10.21-12.89,16-12.89,16l-10.12,25.8-3.71,26-.46,29.77,4.65,26.35L789,813.87,801,837l16.54,18.64,13.76,9.12,19.67,3.83,25.34-6.62,17.34-15.28L904.86,827l9.31-31.63,2.22-23.55-1.82-33.48-11.43-30.1L891.36,686.5l-23.6-23.06-28.15-10.6Z"/><polygon class="cls-3" points="831.02 264.26 826.08 271.06 822.58 280.94 821.55 293.7 824.02 303.99 828.34 312.84 833.9 320.25 840.28 324.16 846.66 326.01 854.89 324.37 861.07 318.19 863.95 312.01 866.21 303.17 866.01 293.49 862.3 281.55 858.8 274.76 853.04 267.76 846.45 264.06 839.25 262.41 831.02 264.26"/><polygon class="cls-3" points="831.02 497.67 826.08 504.46 822.58 514.34 821.55 527.1 824.02 537.39 828.34 546.24 833.9 553.65 840.28 557.56 846.66 559.41 854.89 557.76 861.07 551.59 863.95 545.42 866.21 536.57 866.01 526.89 862.3 514.95 858.8 508.16 853.04 501.16 846.45 497.46 839.25 495.81 831.02 497.67"/><polygon class="cls-3" points="831.02 736.62 826.08 743.41 822.58 753.29 821.55 766.05 824.02 776.35 828.34 785.2 833.9 792.61 840.28 796.52 846.66 798.37 854.89 796.72 861.07 790.55 863.95 784.37 866.21 775.52 866.01 765.85 862.3 753.91 858.8 747.12 853.04 740.12 846.45 736.42 839.25 734.77 831.02 736.62"/><polygon class="cls-4" points="247.5 363.99 308.52 476.35 310.97 651.91 247.5 794.99 246.89 367.5 247.5 363.99"/><polygon class="cls-4" points="272.39 357.33 324.49 436.33 414.95 411.47 427.18 427.06 429.21 459.3 417.85 487.04 352.95 503.28 353.92 598.5 425.91 586.77 441.7 608.41 442.95 646.69 429.23 674.43 348.19 688.69 297.23 789.55 464.45 775.63 513.86 686.36 512.85 570.48 478.12 519.67 500.86 471.26 500.65 363.95 448.18 296.54 272.39 357.33"/></svg>